<mxfile host="app.diagrams.net" modified="2023-03-30T19:46:17.563Z" agent="Mozilla/5.0 (X11; Ubuntu; Linux x86_64; rv:109.0) Gecko/20100101 Firefox/111.0" etag="LNqw8V3XnCxaapGtRVE1" version="21.1.1" type="device">
  <diagram id="C5RBs43oDa-KdzZeNtuy" name="Page-1">
    <mxGraphModel dx="1245" dy="645" grid="1" gridSize="10" guides="1" tooltips="1" connect="1" arrows="1" fold="1" page="1" pageScale="1" pageWidth="827" pageHeight="1169" math="0" shadow="0">
      <root>
        <mxCell id="WIyWlLk6GJQsqaUBKTNV-0" />
        <mxCell id="WIyWlLk6GJQsqaUBKTNV-1" parent="WIyWlLk6GJQsqaUBKTNV-0" />
        <mxCell id="-s3Pj3KcKdySAjV7g_e6-72" value="&lt;font style=&quot;font-size: 14px;&quot;&gt;&lt;b&gt;Common Resources Management&lt;br&gt;&lt;/b&gt;&lt;/font&gt;" style="text;strokeColor=none;align=center;fillColor=none;html=1;verticalAlign=middle;whiteSpace=wrap;rounded=0;strokeWidth=3;" parent="WIyWlLk6GJQsqaUBKTNV-1" vertex="1">
          <mxGeometry x="40" y="37.5" width="150" height="30" as="geometry" />
        </mxCell>
        <mxCell id="9hSZIn0WwLjKpth-NDlm-29" value="&lt;div&gt;Yes&lt;/div&gt;" style="text;strokeColor=none;align=center;fillColor=none;html=1;verticalAlign=middle;whiteSpace=wrap;rounded=0;strokeWidth=3;" vertex="1" parent="WIyWlLk6GJQsqaUBKTNV-1">
          <mxGeometry x="120" y="540" width="40" height="20" as="geometry" />
        </mxCell>
        <mxCell id="9hSZIn0WwLjKpth-NDlm-32" value="No" style="text;strokeColor=none;align=center;fillColor=none;html=1;verticalAlign=middle;whiteSpace=wrap;rounded=0;strokeWidth=3;" vertex="1" parent="WIyWlLk6GJQsqaUBKTNV-1">
          <mxGeometry x="200" y="407.5" width="40" height="20" as="geometry" />
        </mxCell>
        <mxCell id="9hSZIn0WwLjKpth-NDlm-35" value="" style="edgeStyle=orthogonalEdgeStyle;rounded=0;orthogonalLoop=1;jettySize=auto;html=1;strokeWidth=3;" edge="1" parent="WIyWlLk6GJQsqaUBKTNV-1" source="9hSZIn0WwLjKpth-NDlm-33" target="9hSZIn0WwLjKpth-NDlm-34">
          <mxGeometry relative="1" as="geometry" />
        </mxCell>
        <mxCell id="9hSZIn0WwLjKpth-NDlm-33" value="Create stack" style="rounded=1;whiteSpace=wrap;html=1;fontSize=12;glass=0;strokeWidth=3;shadow=0;" vertex="1" parent="WIyWlLk6GJQsqaUBKTNV-1">
          <mxGeometry x="50" y="117.5" width="120" height="40" as="geometry" />
        </mxCell>
        <mxCell id="9hSZIn0WwLjKpth-NDlm-37" value="" style="edgeStyle=orthogonalEdgeStyle;rounded=0;orthogonalLoop=1;jettySize=auto;html=1;strokeWidth=3;" edge="1" parent="WIyWlLk6GJQsqaUBKTNV-1" source="9hSZIn0WwLjKpth-NDlm-34" target="9hSZIn0WwLjKpth-NDlm-36">
          <mxGeometry relative="1" as="geometry">
            <Array as="points">
              <mxPoint x="115" y="310" />
              <mxPoint x="115" y="310" />
            </Array>
          </mxGeometry>
        </mxCell>
        <mxCell id="9hSZIn0WwLjKpth-NDlm-34" value="Check in code to repository" style="whiteSpace=wrap;html=1;rounded=1;glass=0;strokeWidth=3;shadow=0;" vertex="1" parent="WIyWlLk6GJQsqaUBKTNV-1">
          <mxGeometry x="50" y="225" width="120" height="70" as="geometry" />
        </mxCell>
        <mxCell id="9hSZIn0WwLjKpth-NDlm-39" value="" style="edgeStyle=orthogonalEdgeStyle;rounded=0;orthogonalLoop=1;jettySize=auto;html=1;strokeWidth=3;" edge="1" parent="WIyWlLk6GJQsqaUBKTNV-1" source="9hSZIn0WwLjKpth-NDlm-36" target="9hSZIn0WwLjKpth-NDlm-38">
          <mxGeometry relative="1" as="geometry" />
        </mxCell>
        <mxCell id="9hSZIn0WwLjKpth-NDlm-41" value="" style="edgeStyle=orthogonalEdgeStyle;rounded=0;orthogonalLoop=1;jettySize=auto;html=1;strokeWidth=3;" edge="1" parent="WIyWlLk6GJQsqaUBKTNV-1">
          <mxGeometry relative="1" as="geometry">
            <mxPoint x="114" y="502.5" as="sourcePoint" />
            <mxPoint x="114" y="627.5" as="targetPoint" />
            <Array as="points">
              <mxPoint x="114" y="540" />
              <mxPoint x="114" y="540" />
            </Array>
          </mxGeometry>
        </mxCell>
        <mxCell id="9hSZIn0WwLjKpth-NDlm-36" value="On pull request:&lt;br&gt;Check for the existence of common resources" style="rhombus;whiteSpace=wrap;html=1;rounded=1;glass=0;strokeWidth=3;shadow=0;" vertex="1" parent="WIyWlLk6GJQsqaUBKTNV-1">
          <mxGeometry x="40" y="357.5" width="150" height="150" as="geometry" />
        </mxCell>
        <mxCell id="9hSZIn0WwLjKpth-NDlm-38" value="Create resources from template" style="ellipse;whiteSpace=wrap;html=1;rounded=1;glass=0;strokeWidth=3;shadow=0;" vertex="1" parent="WIyWlLk6GJQsqaUBKTNV-1">
          <mxGeometry x="270" y="392.5" width="80" height="80" as="geometry" />
        </mxCell>
        <mxCell id="9hSZIn0WwLjKpth-NDlm-40" value="Take snapshot of resources and update resources from template" style="ellipse;whiteSpace=wrap;html=1;rounded=1;glass=0;strokeWidth=3;shadow=0;" vertex="1" parent="WIyWlLk6GJQsqaUBKTNV-1">
          <mxGeometry x="50" y="627.5" width="120" height="110" as="geometry" />
        </mxCell>
        <mxCell id="9hSZIn0WwLjKpth-NDlm-58" value="&lt;font style=&quot;font-size: 14px;&quot;&gt;&lt;b&gt;Job Resources Management&lt;br&gt;&lt;/b&gt;&lt;/font&gt;" style="text;strokeColor=none;align=center;fillColor=none;html=1;verticalAlign=middle;whiteSpace=wrap;rounded=0;strokeWidth=3;" vertex="1" parent="WIyWlLk6GJQsqaUBKTNV-1">
          <mxGeometry x="490" y="40" width="150" height="30" as="geometry" />
        </mxCell>
        <mxCell id="9hSZIn0WwLjKpth-NDlm-59" value="&lt;div&gt;Yes&lt;/div&gt;" style="text;strokeColor=none;align=center;fillColor=none;html=1;verticalAlign=middle;whiteSpace=wrap;rounded=0;strokeWidth=3;" vertex="1" parent="WIyWlLk6GJQsqaUBKTNV-1">
          <mxGeometry x="550" y="550" width="40" height="20" as="geometry" />
        </mxCell>
        <mxCell id="9hSZIn0WwLjKpth-NDlm-60" value="No" style="text;strokeColor=none;align=center;fillColor=none;html=1;verticalAlign=middle;whiteSpace=wrap;rounded=0;strokeWidth=3;" vertex="1" parent="WIyWlLk6GJQsqaUBKTNV-1">
          <mxGeometry x="650" y="410" width="40" height="20" as="geometry" />
        </mxCell>
        <mxCell id="9hSZIn0WwLjKpth-NDlm-61" value="" style="edgeStyle=orthogonalEdgeStyle;rounded=0;orthogonalLoop=1;jettySize=auto;html=1;strokeWidth=3;" edge="1" parent="WIyWlLk6GJQsqaUBKTNV-1" source="9hSZIn0WwLjKpth-NDlm-62" target="9hSZIn0WwLjKpth-NDlm-64">
          <mxGeometry relative="1" as="geometry" />
        </mxCell>
        <mxCell id="9hSZIn0WwLjKpth-NDlm-62" value="Create a single idempotent stack per job" style="rounded=1;whiteSpace=wrap;html=1;fontSize=12;glass=0;strokeWidth=3;shadow=0;" vertex="1" parent="WIyWlLk6GJQsqaUBKTNV-1">
          <mxGeometry x="490" y="120" width="120" height="50" as="geometry" />
        </mxCell>
        <mxCell id="9hSZIn0WwLjKpth-NDlm-63" value="" style="edgeStyle=orthogonalEdgeStyle;rounded=0;orthogonalLoop=1;jettySize=auto;html=1;strokeWidth=3;" edge="1" parent="WIyWlLk6GJQsqaUBKTNV-1" source="9hSZIn0WwLjKpth-NDlm-64" target="9hSZIn0WwLjKpth-NDlm-67">
          <mxGeometry relative="1" as="geometry" />
        </mxCell>
        <mxCell id="9hSZIn0WwLjKpth-NDlm-64" value="Check in code to repository" style="whiteSpace=wrap;html=1;rounded=1;glass=0;strokeWidth=3;shadow=0;" vertex="1" parent="WIyWlLk6GJQsqaUBKTNV-1">
          <mxGeometry x="490" y="230" width="120" height="60" as="geometry" />
        </mxCell>
        <mxCell id="9hSZIn0WwLjKpth-NDlm-65" value="" style="edgeStyle=orthogonalEdgeStyle;rounded=0;orthogonalLoop=1;jettySize=auto;html=1;strokeWidth=3;" edge="1" parent="WIyWlLk6GJQsqaUBKTNV-1" source="9hSZIn0WwLjKpth-NDlm-67" target="9hSZIn0WwLjKpth-NDlm-68">
          <mxGeometry relative="1" as="geometry" />
        </mxCell>
        <mxCell id="9hSZIn0WwLjKpth-NDlm-66" value="" style="edgeStyle=orthogonalEdgeStyle;rounded=0;orthogonalLoop=1;jettySize=auto;html=1;strokeWidth=3;" edge="1" parent="WIyWlLk6GJQsqaUBKTNV-1" source="9hSZIn0WwLjKpth-NDlm-67" target="9hSZIn0WwLjKpth-NDlm-70">
          <mxGeometry relative="1" as="geometry" />
        </mxCell>
        <mxCell id="9hSZIn0WwLjKpth-NDlm-67" value="On pull request:&lt;br&gt;Check for the existence of job workflow" style="rhombus;whiteSpace=wrap;html=1;rounded=1;glass=0;strokeWidth=3;shadow=0;" vertex="1" parent="WIyWlLk6GJQsqaUBKTNV-1">
          <mxGeometry x="480" y="360" width="140" height="150" as="geometry" />
        </mxCell>
        <mxCell id="9hSZIn0WwLjKpth-NDlm-68" value="Create resources from template" style="ellipse;whiteSpace=wrap;html=1;rounded=1;glass=0;strokeWidth=3;shadow=0;" vertex="1" parent="WIyWlLk6GJQsqaUBKTNV-1">
          <mxGeometry x="720" y="395" width="80" height="80" as="geometry" />
        </mxCell>
        <mxCell id="9hSZIn0WwLjKpth-NDlm-70" value="Update resources from template" style="ellipse;whiteSpace=wrap;html=1;rounded=1;glass=0;strokeWidth=3;shadow=0;" vertex="1" parent="WIyWlLk6GJQsqaUBKTNV-1">
          <mxGeometry x="500" y="630" width="100" height="105" as="geometry" />
        </mxCell>
        <mxCell id="9hSZIn0WwLjKpth-NDlm-84" value="AWS Step Functions workflow" style="points=[[0,0],[0.25,0],[0.5,0],[0.75,0],[1,0],[1,0.25],[1,0.5],[1,0.75],[1,1],[0.75,1],[0.5,1],[0.25,1],[0,1],[0,0.75],[0,0.5],[0,0.25]];outlineConnect=0;gradientColor=none;html=1;whiteSpace=wrap;fontSize=12;fontStyle=0;container=1;pointerEvents=0;collapsible=0;recursiveResize=0;shape=mxgraph.aws4.group;grIcon=mxgraph.aws4.group_aws_step_functions_workflow;strokeColor=#CD2264;fillColor=none;verticalAlign=top;align=left;spacingLeft=30;fontColor=#CD2264;dashed=0;strokeWidth=3;" vertex="1" parent="WIyWlLk6GJQsqaUBKTNV-1">
          <mxGeometry x="40" y="800" width="1300" height="670" as="geometry" />
        </mxCell>
        <mxCell id="9hSZIn0WwLjKpth-NDlm-92" style="edgeStyle=orthogonalEdgeStyle;rounded=0;orthogonalLoop=1;jettySize=auto;html=1;entryX=-0.05;entryY=0.405;entryDx=0;entryDy=0;entryPerimeter=0;strokeWidth=3;" edge="1" parent="9hSZIn0WwLjKpth-NDlm-84" source="9hSZIn0WwLjKpth-NDlm-86" target="9hSZIn0WwLjKpth-NDlm-87">
          <mxGeometry relative="1" as="geometry" />
        </mxCell>
        <mxCell id="9hSZIn0WwLjKpth-NDlm-86" value="" style="sketch=0;points=[[0,0,0],[0.25,0,0],[0.5,0,0],[0.75,0,0],[1,0,0],[0,1,0],[0.25,1,0],[0.5,1,0],[0.75,1,0],[1,1,0],[0,0.25,0],[0,0.5,0],[0,0.75,0],[1,0.25,0],[1,0.5,0],[1,0.75,0]];outlineConnect=0;fontColor=#232F3E;gradientColor=#FF4F8B;gradientDirection=north;fillColor=#BC1356;strokeColor=#ffffff;dashed=0;verticalLabelPosition=bottom;verticalAlign=top;align=center;html=1;fontSize=12;fontStyle=0;aspect=fixed;shape=mxgraph.aws4.resourceIcon;resIcon=mxgraph.aws4.eventbridge;strokeWidth=3;" vertex="1" parent="9hSZIn0WwLjKpth-NDlm-84">
          <mxGeometry x="40" y="260" width="78" height="78" as="geometry" />
        </mxCell>
        <mxCell id="9hSZIn0WwLjKpth-NDlm-165" style="edgeStyle=orthogonalEdgeStyle;rounded=0;orthogonalLoop=1;jettySize=auto;html=1;entryX=-0.028;entryY=0.593;entryDx=0;entryDy=0;entryPerimeter=0;strokeWidth=3;" edge="1" parent="9hSZIn0WwLjKpth-NDlm-84" source="9hSZIn0WwLjKpth-NDlm-87" target="9hSZIn0WwLjKpth-NDlm-89">
          <mxGeometry relative="1" as="geometry" />
        </mxCell>
        <mxCell id="9hSZIn0WwLjKpth-NDlm-87" value="AWS Lambda" style="sketch=0;outlineConnect=0;fontColor=#232F3E;gradientColor=none;strokeColor=#ffffff;fillColor=#232F3E;dashed=0;verticalLabelPosition=middle;verticalAlign=bottom;align=center;html=1;whiteSpace=wrap;fontSize=10;fontStyle=1;spacing=3;shape=mxgraph.aws4.productIcon;prIcon=mxgraph.aws4.lambda;strokeWidth=3;" vertex="1" parent="9hSZIn0WwLjKpth-NDlm-84">
          <mxGeometry x="278" y="258.5" width="80" height="100" as="geometry" />
        </mxCell>
        <mxCell id="9hSZIn0WwLjKpth-NDlm-100" style="edgeStyle=orthogonalEdgeStyle;rounded=0;orthogonalLoop=1;jettySize=auto;html=1;entryX=0;entryY=0.5;entryDx=0;entryDy=0;entryPerimeter=0;strokeWidth=3;" edge="1" parent="9hSZIn0WwLjKpth-NDlm-84" source="9hSZIn0WwLjKpth-NDlm-89" target="9hSZIn0WwLjKpth-NDlm-90">
          <mxGeometry relative="1" as="geometry">
            <Array as="points">
              <mxPoint x="614" y="298" />
            </Array>
          </mxGeometry>
        </mxCell>
        <mxCell id="9hSZIn0WwLjKpth-NDlm-89" value="" style="outlineConnect=0;dashed=0;verticalLabelPosition=bottom;verticalAlign=top;align=center;html=1;shape=mxgraph.aws3.dynamo_db;fillColor=#2E73B8;gradientColor=none;strokeWidth=3;" vertex="1" parent="9hSZIn0WwLjKpth-NDlm-84">
          <mxGeometry x="478" y="260" width="72" height="81" as="geometry" />
        </mxCell>
        <mxCell id="9hSZIn0WwLjKpth-NDlm-103" style="edgeStyle=orthogonalEdgeStyle;rounded=0;orthogonalLoop=1;jettySize=auto;html=1;entryX=-0.037;entryY=0.395;entryDx=0;entryDy=0;entryPerimeter=0;strokeWidth=3;" edge="1" parent="9hSZIn0WwLjKpth-NDlm-84" source="9hSZIn0WwLjKpth-NDlm-90" target="9hSZIn0WwLjKpth-NDlm-102">
          <mxGeometry relative="1" as="geometry" />
        </mxCell>
        <mxCell id="9hSZIn0WwLjKpth-NDlm-90" value="" style="sketch=0;points=[[0,0,0],[0.25,0,0],[0.5,0,0],[0.75,0,0],[1,0,0],[0,1,0],[0.25,1,0],[0.5,1,0],[0.75,1,0],[1,1,0],[0,0.25,0],[0,0.5,0],[0,0.75,0],[1,0.25,0],[1,0.5,0],[1,0.75,0]];outlineConnect=0;fontColor=#232F3E;gradientColor=#FF4F8B;gradientDirection=north;fillColor=#BC1356;strokeColor=#ffffff;dashed=0;verticalLabelPosition=bottom;verticalAlign=top;align=center;html=1;fontSize=12;fontStyle=0;aspect=fixed;shape=mxgraph.aws4.resourceIcon;resIcon=mxgraph.aws4.eventbridge;strokeWidth=3;" vertex="1" parent="9hSZIn0WwLjKpth-NDlm-84">
          <mxGeometry x="678" y="258.5" width="78" height="78" as="geometry" />
        </mxCell>
        <mxCell id="9hSZIn0WwLjKpth-NDlm-93" value="Triggers on schedule or after S3 object write detection " style="text;strokeColor=none;align=center;fillColor=none;html=1;verticalAlign=middle;whiteSpace=wrap;rounded=0;strokeWidth=3;" vertex="1" parent="9hSZIn0WwLjKpth-NDlm-84">
          <mxGeometry x="140" y="250" width="100" height="20" as="geometry" />
        </mxCell>
        <mxCell id="9hSZIn0WwLjKpth-NDlm-95" value="Writes job config to DynamoDB" style="text;strokeColor=none;align=center;fillColor=none;html=1;verticalAlign=middle;whiteSpace=wrap;rounded=0;strokeWidth=3;" vertex="1" parent="9hSZIn0WwLjKpth-NDlm-84">
          <mxGeometry x="390" y="261.5" width="50" height="30" as="geometry" />
        </mxCell>
        <mxCell id="9hSZIn0WwLjKpth-NDlm-101" value="Event triggers lambda" style="text;strokeColor=none;align=center;fillColor=none;html=1;verticalAlign=middle;whiteSpace=wrap;rounded=0;strokeWidth=3;" vertex="1" parent="9hSZIn0WwLjKpth-NDlm-84">
          <mxGeometry x="787" y="261.5" width="60" height="30" as="geometry" />
        </mxCell>
        <mxCell id="9hSZIn0WwLjKpth-NDlm-164" style="edgeStyle=orthogonalEdgeStyle;rounded=0;orthogonalLoop=1;jettySize=auto;html=1;entryX=0;entryY=0.75;entryDx=0;entryDy=0;entryPerimeter=0;strokeWidth=3;" edge="1" parent="9hSZIn0WwLjKpth-NDlm-84">
          <mxGeometry relative="1" as="geometry">
            <mxPoint x="958" y="302" as="sourcePoint" />
            <mxPoint x="1080" y="302" as="targetPoint" />
            <Array as="points">
              <mxPoint x="990" y="302" />
              <mxPoint x="990" y="302" />
            </Array>
          </mxGeometry>
        </mxCell>
        <mxCell id="9hSZIn0WwLjKpth-NDlm-167" style="edgeStyle=orthogonalEdgeStyle;rounded=0;orthogonalLoop=1;jettySize=auto;html=1;strokeWidth=3;" edge="1" parent="9hSZIn0WwLjKpth-NDlm-84" source="9hSZIn0WwLjKpth-NDlm-102" target="9hSZIn0WwLjKpth-NDlm-166">
          <mxGeometry relative="1" as="geometry" />
        </mxCell>
        <mxCell id="9hSZIn0WwLjKpth-NDlm-102" value="AWS Lambda" style="sketch=0;outlineConnect=0;fontColor=#232F3E;gradientColor=none;strokeColor=#ffffff;fillColor=#232F3E;dashed=0;verticalLabelPosition=middle;verticalAlign=bottom;align=center;html=1;whiteSpace=wrap;fontSize=10;fontStyle=1;spacing=3;shape=mxgraph.aws4.productIcon;prIcon=mxgraph.aws4.lambda;strokeWidth=3;" vertex="1" parent="9hSZIn0WwLjKpth-NDlm-84">
          <mxGeometry x="878" y="258.5" width="80" height="100" as="geometry" />
        </mxCell>
        <mxCell id="9hSZIn0WwLjKpth-NDlm-118" value="Event created for new or failed jobs (up to max)" style="text;strokeColor=none;align=center;fillColor=none;html=1;verticalAlign=middle;whiteSpace=wrap;rounded=0;strokeWidth=3;" vertex="1" parent="9hSZIn0WwLjKpth-NDlm-84">
          <mxGeometry x="980" y="260" width="80" height="30" as="geometry" />
        </mxCell>
        <mxCell id="9hSZIn0WwLjKpth-NDlm-121" style="edgeStyle=orthogonalEdgeStyle;rounded=0;orthogonalLoop=1;jettySize=auto;html=1;entryX=0.5;entryY=1;entryDx=0;entryDy=0;entryPerimeter=0;strokeWidth=3;" edge="1" parent="9hSZIn0WwLjKpth-NDlm-84" source="9hSZIn0WwLjKpth-NDlm-88" target="9hSZIn0WwLjKpth-NDlm-89">
          <mxGeometry relative="1" as="geometry" />
        </mxCell>
        <mxCell id="9hSZIn0WwLjKpth-NDlm-88" value="AWS Glue" style="sketch=0;outlineConnect=0;fontColor=#232F3E;gradientColor=none;strokeColor=#ffffff;fillColor=#232F3E;dashed=0;verticalLabelPosition=middle;verticalAlign=bottom;align=center;html=1;whiteSpace=wrap;fontSize=10;fontStyle=1;spacing=3;shape=mxgraph.aws4.productIcon;prIcon=mxgraph.aws4.glue;strokeWidth=3;" vertex="1" parent="9hSZIn0WwLjKpth-NDlm-84">
          <mxGeometry x="860" y="550" width="80" height="100" as="geometry" />
        </mxCell>
        <mxCell id="9hSZIn0WwLjKpth-NDlm-140" value="Updates job config with execution status" style="text;strokeColor=none;align=center;fillColor=none;html=1;verticalAlign=middle;whiteSpace=wrap;rounded=0;strokeWidth=3;" vertex="1" parent="9hSZIn0WwLjKpth-NDlm-84">
          <mxGeometry x="610" y="560" width="100" height="30" as="geometry" />
        </mxCell>
        <mxCell id="9hSZIn0WwLjKpth-NDlm-171" style="edgeStyle=orthogonalEdgeStyle;rounded=0;orthogonalLoop=1;jettySize=auto;html=1;strokeWidth=3;" edge="1" parent="9hSZIn0WwLjKpth-NDlm-84" source="9hSZIn0WwLjKpth-NDlm-141" target="9hSZIn0WwLjKpth-NDlm-88">
          <mxGeometry relative="1" as="geometry">
            <Array as="points">
              <mxPoint x="1119" y="580" />
            </Array>
          </mxGeometry>
        </mxCell>
        <mxCell id="9hSZIn0WwLjKpth-NDlm-141" value="" style="sketch=0;points=[[0,0,0],[0.25,0,0],[0.5,0,0],[0.75,0,0],[1,0,0],[0,1,0],[0.25,1,0],[0.5,1,0],[0.75,1,0],[1,1,0],[0,0.25,0],[0,0.5,0],[0,0.75,0],[1,0.25,0],[1,0.5,0],[1,0.75,0]];outlineConnect=0;fontColor=#232F3E;gradientColor=#FF4F8B;gradientDirection=north;fillColor=#BC1356;strokeColor=#ffffff;dashed=0;verticalLabelPosition=bottom;verticalAlign=top;align=center;html=1;fontSize=12;fontStyle=0;aspect=fixed;shape=mxgraph.aws4.resourceIcon;resIcon=mxgraph.aws4.eventbridge;strokeWidth=3;" vertex="1" parent="9hSZIn0WwLjKpth-NDlm-84">
          <mxGeometry x="1080" y="261.5" width="78" height="78" as="geometry" />
        </mxCell>
        <mxCell id="9hSZIn0WwLjKpth-NDlm-162" value="Triggers Glue job for relevant jobs" style="text;strokeColor=none;align=center;fillColor=none;html=1;verticalAlign=middle;whiteSpace=wrap;rounded=0;strokeWidth=3;" vertex="1" parent="9hSZIn0WwLjKpth-NDlm-84">
          <mxGeometry x="1121" y="470" width="80" height="30" as="geometry" />
        </mxCell>
        <mxCell id="9hSZIn0WwLjKpth-NDlm-166" value="Amazon SNS" style="sketch=0;outlineConnect=0;fontColor=#232F3E;gradientColor=none;strokeColor=#ffffff;fillColor=#232F3E;dashed=0;verticalLabelPosition=middle;verticalAlign=bottom;align=center;html=1;whiteSpace=wrap;fontSize=10;fontStyle=1;spacing=3;shape=mxgraph.aws4.productIcon;prIcon=mxgraph.aws4.sns;strokeWidth=3;" vertex="1" parent="9hSZIn0WwLjKpth-NDlm-84">
          <mxGeometry x="878" y="10" width="80" height="100" as="geometry" />
        </mxCell>
        <mxCell id="9hSZIn0WwLjKpth-NDlm-169" value="Object write creates event" style="text;strokeColor=none;align=center;fillColor=none;html=1;verticalAlign=middle;whiteSpace=wrap;rounded=0;strokeWidth=3;" vertex="1" parent="9hSZIn0WwLjKpth-NDlm-84">
          <mxGeometry x="570" y="258.5" width="80" height="30" as="geometry" />
        </mxCell>
        <mxCell id="9hSZIn0WwLjKpth-NDlm-170" value="Notification for failure after max-retry" style="text;strokeColor=none;align=center;fillColor=none;html=1;verticalAlign=middle;whiteSpace=wrap;rounded=0;strokeWidth=3;" vertex="1" parent="9hSZIn0WwLjKpth-NDlm-84">
          <mxGeometry x="920" y="150" width="80" height="30" as="geometry" />
        </mxCell>
      </root>
    </mxGraphModel>
  </diagram>
</mxfile>
